<svg width="17" height="17" viewBox="0 0 17 17" fill="none" xmlns="http://www.w3.org/2000/svg">
<path d="M9.14683 8.39075L13.3468 4.19742C13.4724 4.07188 13.5429 3.90162 13.5429 3.72408C13.5429 3.54655 13.4724 3.37628 13.3468 3.25075C13.2213 3.12521 13.051 3.05469 12.8735 3.05469C12.696 3.05469 12.5257 3.12521 12.4002 3.25075L8.20683 7.45075L4.01349 3.25075C3.88796 3.12521 3.7177 3.05469 3.54016 3.05469C3.36263 3.05469 3.19236 3.12521 3.06683 3.25075C2.94129 3.37628 2.87077 3.54655 2.87077 3.72408C2.87077 3.90162 2.94129 4.07188 3.06683 4.19742L7.26683 8.39075L3.06683 12.5841C3.00434 12.6461 2.95475 12.7198 2.9209 12.801C2.88705 12.8823 2.86963 12.9694 2.86963 13.0574C2.86963 13.1454 2.88705 13.2326 2.9209 13.3138C2.95475 13.395 3.00434 13.4688 3.06683 13.5307C3.1288 13.5932 3.20254 13.6428 3.28378 13.6767C3.36502 13.7105 3.45215 13.7279 3.54016 13.7279C3.62817 13.7279 3.71531 13.7105 3.79655 13.6767C3.87779 13.6428 3.95152 13.5932 4.01349 13.5307L8.20683 9.33075L12.4002 13.5307C12.4621 13.5932 12.5359 13.6428 12.6171 13.6767C12.6983 13.7105 12.7855 13.7279 12.8735 13.7279C12.9615 13.7279 13.0486 13.7105 13.1299 13.6767C13.2111 13.6428 13.2849 13.5932 13.3468 13.5307C13.4093 13.4688 13.4589 13.395 13.4928 13.3138C13.5266 13.2326 13.544 13.1454 13.544 13.0574C13.544 12.9694 13.5266 12.8823 13.4928 12.801C13.4589 12.7198 13.4093 12.6461 13.3468 12.5841L9.14683 8.39075Z" fill="white"/>
</svg>
