<svg width="19" height="19" viewBox="0 0 19 19" fill="none" xmlns="http://www.w3.org/2000/svg">
<path d="M13.5531 4.26702C13.3676 4.26702 13.1862 4.32203 13.032 4.4251C12.8777 4.52816 12.7575 4.67466 12.6865 4.84605C12.6155 5.01744 12.597 5.20604 12.6332 5.38799C12.6693 5.56994 12.7587 5.73708 12.8899 5.86826C13.021 5.99943 13.1882 6.08877 13.3701 6.12496C13.5521 6.16115 13.7407 6.14258 13.9121 6.07158C14.0835 6.00059 14.2299 5.88037 14.333 5.72612C14.4361 5.57187 14.4911 5.39052 14.4911 5.205C14.4911 4.95623 14.3923 4.71765 14.2164 4.54175C14.0405 4.36584 13.8019 4.26702 13.5531 4.26702ZM17.1487 6.15862C17.1335 5.51008 17.012 4.86842 16.7892 4.2592C16.5904 3.73794 16.2811 3.26594 15.8824 2.87568C15.4954 2.47502 15.0223 2.16764 14.4989 1.97678C13.8913 1.7471 13.2489 1.62285 12.5995 1.6094C11.7709 1.5625 11.5052 1.5625 9.37909 1.5625C7.25299 1.5625 6.98723 1.5625 6.15868 1.6094C5.50924 1.62285 4.86687 1.7471 4.25926 1.97678C3.73687 2.16957 3.26417 2.47669 2.87574 2.87568C2.47508 3.26273 2.1677 3.73584 1.97684 4.2592C1.74716 4.86681 1.62291 5.50918 1.60946 6.15862C1.56256 6.98717 1.56256 7.25293 1.56256 9.37903C1.56256 11.5051 1.56256 11.7709 1.60946 12.5994C1.62291 13.2489 1.74716 13.8912 1.97684 14.4988C2.1677 15.0222 2.47508 15.4953 2.87574 15.8824C3.26417 16.2814 3.73687 16.5885 4.25926 16.7813C4.86687 17.011 5.50924 17.1352 6.15868 17.1487C6.98723 17.1956 7.25299 17.1956 9.37909 17.1956C11.5052 17.1956 11.7709 17.1956 12.5995 17.1487C13.2489 17.1352 13.8913 17.011 14.4989 16.7813C15.0223 16.5904 15.4954 16.283 15.8824 15.8824C16.2828 15.4936 16.5924 15.0211 16.7892 14.4988C17.012 13.8896 17.1335 13.248 17.1487 12.5994C17.1487 11.7709 17.1956 11.5051 17.1956 9.37903C17.1956 7.25293 17.1956 6.98717 17.1487 6.15862ZM15.7417 12.5056C15.736 13.0018 15.6462 13.4934 15.476 13.9595C15.3512 14.2997 15.1507 14.607 14.8897 14.8584C14.6362 15.1168 14.3295 15.3168 13.9908 15.4446C13.5247 15.6149 13.0331 15.7047 12.537 15.7104C11.7553 15.7495 11.4661 15.7573 9.41035 15.7573C7.35461 15.7573 7.06539 15.7573 6.28374 15.7104C5.76855 15.7201 5.25555 15.6407 4.76734 15.4759C4.44356 15.3415 4.15089 15.142 3.90752 14.8897C3.64808 14.6386 3.45013 14.3309 3.3291 13.9908C3.13826 13.518 3.03241 13.0152 3.01643 12.5056C3.01643 11.724 2.96954 11.4348 2.96954 9.37903C2.96954 7.32328 2.96954 7.03407 3.01643 6.25242C3.01994 5.74517 3.11254 5.24248 3.29001 4.76728C3.42762 4.43735 3.63884 4.14325 3.90752 3.90746C4.145 3.6387 4.43849 3.42525 4.76734 3.28214C5.24379 3.11021 5.74596 3.02034 6.25248 3.01637C7.03413 3.01637 7.32334 2.96947 9.37909 2.96947C11.4348 2.96947 11.724 2.96947 12.5057 3.01637C13.0019 3.02206 13.4935 3.11193 13.9596 3.28214C14.3148 3.41396 14.6336 3.62829 14.8897 3.90746C15.1459 4.14756 15.346 4.44112 15.476 4.76728C15.6497 5.24325 15.7396 5.74573 15.7417 6.25242C15.7808 7.03407 15.7886 7.32328 15.7886 9.37903C15.7886 11.4348 15.7808 11.724 15.7417 12.5056ZM9.37909 5.36915C8.58634 5.37069 7.81184 5.60718 7.15345 6.04873C6.49506 6.49028 5.98232 7.11708 5.68002 7.84992C5.37772 8.58276 5.29943 9.38877 5.45503 10.1661C5.61063 10.9434 5.99315 11.6572 6.55425 12.2172C7.11536 12.7772 7.82986 13.1583 8.60749 13.3124C9.38511 13.4665 10.191 13.3866 10.9232 13.0829C11.6555 12.7792 12.2813 12.2652 12.7215 11.606C13.1618 10.9467 13.3968 10.1718 13.3968 9.37903C13.3978 8.85149 13.2945 8.32896 13.0929 7.84148C12.8913 7.354 12.5952 6.9112 12.2219 6.53854C11.8485 6.16588 11.4051 5.87072 10.9172 5.67003C10.4294 5.46934 9.90662 5.36709 9.37909 5.36915ZM9.37909 11.9819C8.86428 11.9819 8.36104 11.8293 7.93299 11.5433C7.50495 11.2572 7.17133 10.8507 6.97432 10.3751C6.77731 9.8995 6.72576 9.37614 6.8262 8.87122C6.92663 8.36631 7.17453 7.90252 7.53856 7.5385C7.90258 7.17447 8.36637 6.92657 8.87129 6.82614C9.3762 6.7257 9.89956 6.77725 10.3752 6.97426C10.8508 7.17126 11.2573 7.50488 11.5433 7.93293C11.8293 8.36098 11.982 8.86422 11.982 9.37903C11.982 9.72084 11.9147 10.0593 11.7839 10.3751C11.653 10.6909 11.4613 10.9779 11.2196 11.2196C10.9779 11.4613 10.691 11.653 10.3752 11.7838C10.0594 11.9146 9.72091 11.9819 9.37909 11.9819Z" fill="white"/>
</svg>
