<svg width="227" height="236" viewBox="0 0 227 236" fill="none" xmlns="http://www.w3.org/2000/svg">
<path d="M3.50098 236L6.38773 231H0.614225L3.50098 236ZM4.00098 229.922L4.00098 225.871H3.00098L3.00098 229.922H4.00098ZM4.00098 221.819L4.00098 217.767H3.00098L3.00098 221.819H4.00098ZM4.00098 213.716V209.664H3.00098L3.00098 213.716H4.00098ZM4.00098 205.612L4.00098 201.56H3.00098L3.00098 205.612H4.00098ZM4.00098 197.509L4.00098 193.457H3.00098L3.00098 197.509H4.00098ZM4.00098 189.405V185.353H3.00098L3.00098 189.405H4.00098ZM4.00098 181.302L4.00098 177.25H3.00098L3.00098 181.302H4.00098ZM4.00098 173.198L4.00098 169.147H3.00098L3.00098 173.198H4.00098ZM4.00098 165.095L4.00098 161.043H3.00098L3.00098 165.095H4.00098ZM4.00098 156.991L4.00098 152.94H3.00098L3.00098 156.991H4.00098ZM4.00098 148.888L4.00098 144.836H3.00098L3.00098 148.888H4.00098ZM4.00098 140.784V136.733H3.00098L3.00098 140.784H4.00098ZM4.00098 132.681L4.00098 128.629H3.00098L3.00098 132.681H4.00098ZM4.00098 124.578L4.00098 120.526H3.00098L3.00098 124.578H4.00098ZM4.00098 116.474L4.00098 112.422H3.00098L3.00098 116.474H4.00098ZM4.00098 108.371L4.00098 104.319H3.00098L3.00098 108.371H4.00098ZM4.00098 100.267L4.00098 96.2155H3.00098L3.00098 100.267H4.00098ZM4.00098 92.1637L4.00098 88.112H3.00098L3.00098 92.1637H4.00098ZM4.00098 84.0603L4.00098 80.0086H3.00098L3.00098 84.0603H4.00098ZM4.00098 75.9568L4.00098 71.9051H3.00098L3.00098 75.9568H4.00098ZM4.00098 67.8534L4.00098 63.8017H3.00098L3.00098 67.8534H4.00098ZM4.00098 59.7499L4.00098 55.6982H3.00098L3.00098 59.7499H4.00098ZM4.00098 51.6465L4.00098 47.5947H3.00098L3.00098 51.6465H4.00098ZM4.00098 43.543L4.00098 39.4913H3.00098L3.00098 43.543H4.00098ZM4.00098 35.4396V31.3878H3.00098L3.00098 35.4396H4.00098ZM4.00098 27.3361L4.00098 23.2844H3.00098L3.00098 27.3361H4.00098ZM4.00098 19.2327L4.00098 15.1809H3.00098L3.00098 19.2327H4.00098ZM4.00098 11.1292L4.00098 7.07747H3.00098L3.00098 11.1292H4.00098ZM4.00098 3.02574L4.00098 1H3.00098L3.00098 3.02574H4.00098Z" fill="#008001"/>
<line x1="3" y1="0.5" x2="227" y2="0.5" stroke="#008001" stroke-dasharray="4 4"/>
</svg>
