<svg width="24" height="24" viewBox="0 0 24 24" fill="none" xmlns="http://www.w3.org/2000/svg">
<path fill-rule="evenodd" clip-rule="evenodd" d="M5.13998 1.45801C4.42522 1.45801 3.73973 1.74194 3.23432 2.24735C2.72891 2.75277 2.44498 3.43825 2.44498 4.15301C2.44498 4.86777 2.72891 5.55325 3.23432 6.05866C3.73973 6.56407 4.42522 6.84801 5.13998 6.84801C5.85473 6.84801 6.54022 6.56407 7.04563 6.05866C7.55104 5.55325 7.83498 4.86777 7.83498 4.15301C7.83498 3.43825 7.55104 2.75277 7.04563 2.24735C6.54022 1.74194 5.85473 1.45801 5.13998 1.45801ZM3.91498 4.15301C3.91498 3.82812 4.04404 3.51653 4.27377 3.2868C4.5035 3.05707 4.81509 2.92801 5.13998 2.92801C5.46487 2.92801 5.77645 3.05707 6.00618 3.2868C6.23591 3.51653 6.36498 3.82812 6.36498 4.15301C6.36498 4.4779 6.23591 4.78948 6.00618 5.01921C5.77645 5.24895 5.46487 5.37801 5.13998 5.37801C4.81509 5.37801 4.5035 5.24895 4.27377 5.01921C4.04404 4.78948 3.91498 4.4779 3.91498 4.15301ZM2.44498 8.07301C2.44498 7.87807 2.52241 7.69112 2.66025 7.55328C2.79809 7.41544 2.98504 7.33801 3.17998 7.33801H7.09998C7.29491 7.33801 7.48186 7.41544 7.6197 7.55328C7.75754 7.69112 7.83498 7.87807 7.83498 8.07301V20.813C7.83498 21.0079 7.75754 21.1949 7.6197 21.3327C7.48186 21.4706 7.29491 21.548 7.09998 21.548H3.17998C2.98504 21.548 2.79809 21.4706 2.66025 21.3327C2.52241 21.1949 2.44498 21.0079 2.44498 20.813V8.07301ZM3.91498 8.80801V20.078H6.36498V8.80801H3.91498ZM9.30498 8.07301C9.30498 7.87807 9.38241 7.69112 9.52025 7.55328C9.65809 7.41544 9.84504 7.33801 10.04 7.33801H13.96C14.1549 7.33801 14.3419 7.41544 14.4797 7.55328C14.6175 7.69112 14.695 7.87807 14.695 8.07301V8.49833L15.1213 8.31507C15.8563 8.00108 16.6361 7.80432 17.4321 7.73197C20.1516 7.48501 22.535 9.62141 22.535 12.3654V20.813C22.535 21.0079 22.4575 21.1949 22.3197 21.3327C22.1819 21.4706 21.9949 21.548 21.8 21.548H17.88C17.685 21.548 17.4981 21.4706 17.3603 21.3327C17.2224 21.1949 17.145 21.0079 17.145 20.813V13.953C17.145 13.6281 17.0159 13.3165 16.7862 13.0868C16.5564 12.8571 16.2449 12.728 15.92 12.728C15.5951 12.728 15.2835 12.8571 15.0538 13.0868C14.824 13.3165 14.695 13.6281 14.695 13.953V20.813C14.695 21.0079 14.6175 21.1949 14.4797 21.3327C14.3419 21.4706 14.1549 21.548 13.96 21.548H10.04C9.84504 21.548 9.65809 21.4706 9.52025 21.3327C9.38241 21.1949 9.30498 21.0079 9.30498 20.813V8.07301ZM10.775 8.80801V20.078H13.225V13.953C13.225 13.2382 13.5089 12.5528 14.0143 12.0474C14.5197 11.5419 15.2052 11.258 15.92 11.258C16.6347 11.258 17.3202 11.5419 17.8256 12.0474C18.331 12.5528 18.615 13.2382 18.615 13.953V20.078H21.065V12.3654C21.065 10.4995 19.4372 9.02557 17.5664 9.19609C16.9236 9.2544 16.294 9.41313 15.7005 9.66649L14.2501 10.2888C14.1382 10.3368 14.0161 10.3563 13.8949 10.3456C13.7736 10.3348 13.6569 10.294 13.5553 10.227C13.4536 10.1599 13.3702 10.0687 13.3126 9.96146C13.2549 9.85422 13.2248 9.73434 13.225 9.61259V8.80801H10.775Z" fill="white"/>
</svg>
