<svg width="16" height="13" viewBox="0 0 16 13" fill="none" xmlns="http://www.w3.org/2000/svg">
<path d="M3.15934 0.379883H13.5593C14.1959 0.379883 14.8063 0.632739 15.2564 1.08283C15.7065 1.53291 15.9593 2.14336 15.9593 2.77988V9.97988C15.9593 10.6164 15.7065 11.2269 15.2564 11.6769C14.8063 12.127 14.1959 12.3799 13.5593 12.3799H3.15934C2.52282 12.3799 1.91237 12.127 1.46228 11.6769C1.01219 11.2269 0.759338 10.6164 0.759338 9.97988V2.77988C0.759338 2.14336 1.01219 1.53291 1.46228 1.08283C1.91237 0.632739 2.52282 0.379883 3.15934 0.379883ZM3.15934 1.17988C2.75934 1.17988 2.40734 1.31588 2.13534 1.55588L8.35934 5.57988L14.5833 1.55588C14.3113 1.31588 13.9593 1.17988 13.5593 1.17988H3.15934ZM8.35934 6.54788L1.66334 2.20388C1.59934 2.37988 1.55934 2.57988 1.55934 2.77988V9.97988C1.55934 10.4042 1.72791 10.8112 2.02797 11.1113C2.32803 11.4113 2.73499 11.5799 3.15934 11.5799H13.5593C13.9837 11.5799 14.3907 11.4113 14.6907 11.1113C14.9908 10.8112 15.1593 10.4042 15.1593 9.97988V2.77988C15.1593 2.57988 15.1193 2.37988 15.0553 2.20388L8.35934 6.54788Z" fill="white"/>
</svg>
