<svg width="29" height="22" viewBox="0 0 29 22" fill="none" xmlns="http://www.w3.org/2000/svg">
<g clip-path="url(#clip0_751_2258)">
<path d="M6.69114 21.7717V10.6217L3.23317 7.45817L0.132324 5.70264V19.8041C0.132324 20.8928 1.01443 21.7717 2.10001 21.7717H6.69114Z" fill="#4285F4"/>
<path d="M22.4316 21.7716H27.0228C28.1116 21.7716 28.9905 20.8894 28.9905 19.8039V5.70264L25.4783 7.71339L22.4316 10.6216V21.7716Z" fill="#34A853"/>
<path d="M6.69124 10.6214L6.2207 6.26472L6.69124 2.09497L14.5618 7.99793L22.4323 2.09497L22.9586 6.03959L22.4323 10.6214L14.5618 16.5243L6.69124 10.6214Z" fill="#EA4335"/>
<path d="M22.4316 2.09501V10.6214L28.9905 5.70234V3.07879C28.9905 0.645532 26.2128 -0.741603 24.2682 0.717679L22.4316 2.09501Z" fill="#FBBC04"/>
<path d="M0.132324 5.70239L3.14885 7.96487L6.69114 10.6214V2.09506L4.85455 0.71773C2.90659 -0.741663 0.132324 0.645583 0.132324 3.07873V5.70239Z" fill="#C5221F"/>
</g>
<defs>
<clipPath id="clip0_751_2258">
<rect width="28.8587" height="21.7568" fill="white" transform="translate(0.132324 0.121826)"/>
</clipPath>
</defs>
</svg>
