<svg width="44" height="44" viewBox="0 0 44 44" fill="none" xmlns="http://www.w3.org/2000/svg">
<path d="M27.4537 8C27.4537 4.68629 25.0116 2 21.9992 2C18.9867 2 16.5446 4.68629 16.5446 8V20C16.5446 23.3137 18.9867 26 21.9992 26C25.0116 26 27.4537 23.3137 27.4537 20V8Z" stroke="white" stroke-width="3"/>
<path d="M9.27273 4V8M2 2V10M34.7273 4V8M42 2V10M9.27273 18V20C9.27273 23.713 10.6136 27.274 13.0005 29.8995C15.3873 32.525 18.6245 34 22 34M22 34C25.3755 34 28.6127 32.525 30.9995 29.8995C33.3864 27.274 34.7273 23.713 34.7273 20V18M22 34V42M22 42H16.5455M22 42H27.4545" stroke="white" stroke-width="3" stroke-linecap="round" stroke-linejoin="round"/>
</svg>
