<svg width="16" height="16" viewBox="0 0 16 16" fill="none" xmlns="http://www.w3.org/2000/svg">
<path d="M4.70466 1.61187L5.48266 1.37787C5.90885 1.24936 6.36725 1.28029 6.77231 1.46491C7.17737 1.64953 7.50142 1.97522 7.68399 2.38121L8.28533 3.71854C8.4423 4.06774 8.48602 4.45732 8.41033 4.83263C8.33465 5.20794 8.14337 5.55013 7.86333 5.81121L6.86666 6.73987C6.83754 6.767 6.8191 6.80366 6.81466 6.84321C6.78533 7.10787 6.96466 7.62321 7.37866 8.33987C7.67866 8.86054 7.95133 9.22654 8.18266 9.43121C8.34466 9.57454 8.43333 9.60521 8.47133 9.59454L9.81133 9.18454C10.1773 9.07261 10.5691 9.07799 10.9318 9.19994C11.2945 9.32188 11.61 9.55427 11.834 9.86454L12.6873 11.0485C12.9471 11.4085 13.0674 11.8505 13.026 12.2925C12.9846 12.7345 12.7842 13.1465 12.462 13.4519L11.8707 14.0119C11.5572 14.3087 11.1721 14.5194 10.7531 14.6232C10.334 14.7271 9.89517 14.7207 9.47933 14.6045C7.64333 14.0919 5.99733 12.5425 4.52266 9.98854C3.04666 7.43121 2.52799 5.22854 3.00666 3.37987C3.11411 2.9641 3.32685 2.58301 3.62437 2.27334C3.9219 1.96367 4.29351 1.73586 4.70466 1.61187ZM4.99399 2.56987C4.74725 2.64408 4.52378 2.78059 4.34513 2.96625C4.16647 3.15191 4.03866 3.38046 3.97399 3.62987C3.57266 5.18454 4.03199 7.13721 5.38933 9.48854C6.74533 11.8365 8.20466 13.2105 9.74933 13.6419C9.99885 13.7115 10.2621 13.7153 10.5136 13.6529C10.765 13.5905 10.996 13.464 11.184 13.2859L11.7747 12.7259C11.9212 12.5871 12.0124 12.3998 12.0313 12.1988C12.0501 11.9979 11.9954 11.7969 11.8773 11.6332L11.024 10.4499C10.9222 10.3087 10.7787 10.2029 10.6137 10.1474C10.4487 10.092 10.2704 10.0895 10.104 10.1405L8.76066 10.5519C7.98066 10.7839 7.27333 10.1565 6.51333 8.83987C5.99999 7.95321 5.76133 7.26654 5.82133 6.73254C5.85199 6.45521 5.98133 6.19921 6.18466 6.00854L7.18133 5.07987C7.30856 4.96114 7.39543 4.80555 7.42975 4.63493C7.46406 4.46431 7.4441 4.28723 7.37266 4.12854L6.77199 2.79121C6.68899 2.60667 6.54168 2.45863 6.35755 2.37472C6.17342 2.29081 5.96505 2.27677 5.77133 2.33521L4.99399 2.56987Z" fill="white"/>
</svg>
