<svg width="29" height="30" viewBox="0 0 29 30" fill="none" xmlns="http://www.w3.org/2000/svg">
<path d="M25.773 23.5034C25.6211 24.1839 25.2448 24.7936 24.7045 25.2343C24.1141 25.833 23.4107 26.3084 22.6351 26.6329C21.8595 26.9575 21.0271 27.1246 20.1863 27.1247H19.7935C18.0288 27.0289 16.3009 26.5822 14.7109 25.8108H14.6988C14.3301 25.6392 13.9494 25.4676 13.5807 25.2585C11.7246 24.2178 10.0222 22.9242 8.52227 21.4148C6.57572 19.5864 4.97834 17.4189 3.80831 15.0183C3.18649 13.7027 2.77145 12.2989 2.57784 10.8567C2.29315 9.34702 2.4644 7.78677 3.06979 6.3748C3.45197 5.73779 3.91876 5.15553 4.45738 4.64393C4.69975 4.36986 4.99606 4.14874 5.32779 3.99442C5.65951 3.8401 6.01952 3.75589 6.38527 3.74707C6.78306 3.79103 7.16816 3.91357 7.5182 4.10758C7.86824 4.30158 8.17626 4.56319 8.42437 4.87721C8.97675 5.47794 9.65121 6.10405 10.2048 6.68181L10.9663 7.43121C11.4135 7.82767 11.6903 8.38126 11.7399 8.97836C11.7399 9.52591 11.538 10.0541 11.1742 10.4639C10.9386 10.7504 10.6884 11.0248 10.4248 11.2858L10.1794 11.5432C10.0368 11.6762 9.928 11.8406 9.86031 12.0231C9.79988 12.2028 9.7757 12.3869 9.78779 12.5755C9.98239 13.0964 10.2882 13.5702 10.6822 13.9631C11.2975 14.7971 11.9115 15.5223 12.5376 16.308C13.6701 17.6227 15.0141 18.7392 16.5143 19.6114C16.6678 19.7238 16.8442 19.7987 17.0316 19.8314C17.1935 19.8434 17.3579 19.8193 17.5102 19.7588C17.9393 19.5062 18.3201 19.1823 18.6392 18.8003C19.0683 18.2748 19.6843 17.936 20.3579 17.8551C21.0062 17.864 21.6245 18.1291 22.0779 18.5924C22.3233 18.8003 22.5928 19.0832 22.8515 19.3539L23.219 19.7334L23.5997 20.1021L24.2512 20.7645C24.6396 21.1094 25.0038 21.478 25.3439 21.8704C25.6847 22.3418 25.8382 22.9256 25.773 23.5034ZM21.366 15.092C21.1225 15.0895 20.8897 14.9916 20.7175 14.8195C20.5453 14.6473 20.4475 14.4145 20.445 14.171C20.4462 13.4757 20.3102 12.787 20.0448 12.1444C19.7793 11.5018 19.3895 10.918 18.8979 10.4263C18.4063 9.93468 17.8224 9.54494 17.1798 9.27946C16.5372 9.01398 15.8485 8.87797 15.1532 8.87925C14.909 8.87925 14.6747 8.78221 14.502 8.60948C14.3292 8.43675 14.2322 8.20248 14.2322 7.95821C14.2322 7.71394 14.3292 7.47967 14.502 7.30694C14.6747 7.13421 14.909 7.03718 15.1532 7.03718C16.0905 7.03574 17.0188 7.21929 17.8849 7.57729C18.7511 7.93528 19.5381 8.4607 20.2008 9.12342C20.8635 9.78614 21.3889 10.5731 21.7469 11.4393C22.1049 12.3055 22.2885 13.2337 22.287 14.171C22.2874 14.292 22.2638 14.4119 22.2176 14.5238C22.1714 14.6357 22.1036 14.7374 22.018 14.823C21.9324 14.9085 21.8307 14.9764 21.7188 15.0225C21.607 15.0687 21.487 15.0923 21.366 15.092Z" fill="#00B401"/>
<path d="M25.6263 14.6612C25.383 14.6587 25.1504 14.561 24.9783 14.3891C24.8061 14.2172 24.7081 13.9847 24.7053 13.7414C24.7072 12.5568 24.4755 11.3834 24.0234 10.2883C23.5714 9.19333 22.9078 8.19821 22.0708 7.35992C21.2337 6.52162 20.2396 5.85661 19.1452 5.40293C18.0509 4.94926 16.8778 4.71582 15.6932 4.71598C15.5695 4.72046 15.4462 4.69997 15.3306 4.65574C15.215 4.6115 15.1095 4.54442 15.0204 4.45851C14.9314 4.3726 14.8605 4.26961 14.8121 4.15571C14.7637 4.0418 14.7388 3.91931 14.7388 3.79555C14.7388 3.67179 14.7637 3.5493 14.8121 3.43539C14.8605 3.32148 14.9314 3.2185 15.0204 3.13259C15.1095 3.04668 15.215 2.9796 15.3306 2.93536C15.4462 2.89112 15.5695 2.87063 15.6932 2.87512C17.1196 2.87512 18.532 3.15627 19.8497 3.7025C21.1674 4.24873 22.3645 5.04932 23.3725 6.05851C24.3806 7.0677 25.1798 8.26568 25.7246 9.58397C26.2694 10.9023 26.549 12.315 26.5474 13.7414C26.5477 13.8624 26.5241 13.9824 26.4779 14.0942C26.4317 14.2061 26.3639 14.3078 26.2783 14.3934C26.1927 14.479 26.0911 14.5468 25.9792 14.593C25.8673 14.6392 25.7474 14.6616 25.6263 14.6612Z" fill="#00B401"/>
</svg>
