<svg width="30" height="30" viewBox="0 0 30 30" fill="none" xmlns="http://www.w3.org/2000/svg">
<g clip-path="url(#clip0_751_2237)">
<path d="M0.962491 14.8264C0.961816 17.2637 1.59866 19.6436 2.80962 21.7412L0.84668 28.9083L8.18124 26.9851C10.2099 28.0895 12.4828 28.6682 14.7926 28.6683H14.7987C22.4236 28.6683 28.6306 22.4637 28.6338 14.8373C28.6353 11.1418 27.1974 7.66682 24.585 5.05241C21.9731 2.43822 18.4993 0.99778 14.7981 0.996094C7.17222 0.996094 0.965752 7.20042 0.962603 14.8264" fill="url(#paint0_linear_751_2237)"/>
<path d="M0.468453 14.822C0.467666 17.347 1.12734 19.812 2.38147 21.9848L0.348145 29.4087L7.94569 27.4166C10.0391 28.558 12.396 29.1598 14.7943 29.1607H14.8005C22.699 29.1607 29.1289 22.7328 29.1323 14.8335C29.1336 11.0052 27.644 7.40526 24.9383 4.69719C22.2323 1.98946 18.6343 0.49718 14.8005 0.495605C6.90058 0.495605 0.471601 6.92256 0.468453 14.822ZM4.99307 21.6106L4.70939 21.1602C3.51687 19.2641 2.88744 17.0729 2.88834 14.8229C2.89082 8.25709 8.23432 2.91527 14.805 2.91527C17.987 2.91662 20.9774 4.15704 23.2266 6.4076C25.4757 8.65838 26.7133 11.6504 26.7125 14.8326C26.7096 21.3984 21.366 26.7409 14.8005 26.7409H14.7958C12.658 26.7398 10.5613 26.1657 8.73287 25.0807L8.29774 24.8227L3.7892 26.0048L4.99307 21.6106Z" fill="#F5F5F5"/>
<path d="M11.2189 8.83265C10.9506 8.23639 10.6683 8.22435 10.4132 8.2139C10.2042 8.2049 9.96543 8.20558 9.72684 8.20558C9.48802 8.20558 9.1 8.29542 8.77201 8.65353C8.44369 9.01198 7.51855 9.87821 7.51855 11.64C7.51855 13.4018 8.80181 15.1045 8.9807 15.3437C9.15981 15.5824 11.458 19.3136 15.0979 20.7489C18.1229 21.9418 18.7385 21.7045 19.395 21.6447C20.0517 21.5851 21.5138 20.7787 21.8121 19.9425C22.1106 19.1064 22.1106 18.3898 22.0211 18.24C21.9316 18.0908 21.6928 18.0012 21.3347 17.8222C20.9766 17.6432 19.2159 16.7767 18.8877 16.6572C18.5594 16.5378 18.3207 16.4782 18.0819 16.8368C17.8431 17.1948 17.1573 18.0012 16.9483 18.24C16.7395 18.4794 16.5305 18.5092 16.1725 18.3301C15.8141 18.1504 14.6608 17.7727 13.2926 16.5529C12.228 15.6037 11.5093 14.4315 11.3004 14.0729C11.0915 13.7149 11.278 13.5209 11.4576 13.3424C11.6185 13.182 11.8158 12.9243 11.995 12.7152C12.1736 12.5061 12.2332 12.3569 12.3526 12.1181C12.4721 11.879 12.4123 11.6699 12.3229 11.4908C12.2332 11.3117 11.5373 9.54067 11.2189 8.83265Z" fill="#F5F5F5"/>
</g>
<defs>
<linearGradient id="paint0_linear_751_2237" x1="1390.2" y1="2792.21" x2="1390.2" y2="0.996094" gradientUnits="userSpaceOnUse">
<stop stop-color="#1FAF38"/>
<stop offset="1" stop-color="#60D669"/>
</linearGradient>
<clipPath id="clip0_751_2237">
<rect width="28.7841" height="29.009" fill="white" transform="translate(0.348145 0.495605)"/>
</clipPath>
</defs>
</svg>
