<svg width="14" height="15" viewBox="0 0 14 15" fill="none" xmlns="http://www.w3.org/2000/svg">
<path d="M10.2218 8.40924C10.0818 8.33922 9.17163 7.91915 9.03161 7.84914C8.89158 7.77912 8.75156 7.77912 8.61153 7.91915C8.47151 8.05917 8.19146 8.47925 8.05143 8.61927C7.98142 8.7593 7.8414 8.7593 7.70137 8.68929C7.21128 8.47925 6.7212 8.1992 6.30112 7.84914C5.95106 7.49907 5.601 7.079 5.32095 6.65892C5.25094 6.5189 5.32095 6.37887 5.39096 6.30886C5.46097 6.23885 5.53099 6.09882 5.67101 6.02881C5.74102 5.9588 5.81104 5.81877 5.81104 5.74876C5.88105 5.67875 5.88105 5.53872 5.81104 5.46871C5.74102 5.3987 5.39096 4.55855 5.25094 4.20849C5.18092 3.7184 5.0409 3.7184 4.90087 3.7184H4.55081C4.41079 3.7184 4.20075 3.85842 4.13074 3.92844C3.71066 4.34851 3.50062 4.8386 3.50062 5.3987C3.57064 6.02881 3.78067 6.65892 4.20075 7.21902C4.97089 8.33922 5.95106 9.24939 7.14127 9.80949C7.49133 9.94951 7.77138 10.0895 8.12145 10.1595C8.47151 10.2996 8.82157 10.2996 9.24165 10.2296C9.73173 10.1595 10.1518 9.80949 10.4319 9.38941C10.5719 9.10936 10.5719 8.82931 10.5019 8.54926L10.2218 8.40924ZM11.9721 2.0381C9.24165 -0.692387 4.83086 -0.692387 2.10037 2.0381C-0.140025 4.2785 -0.5601 7.70911 0.980175 10.4396L0 14.0102L3.71066 13.0301C4.76085 13.5902 5.88105 13.8702 7.00125 13.8702C10.8519 13.8702 13.9325 10.7897 13.9325 6.93897C14.0025 5.11865 13.2324 3.36834 11.9721 2.0381ZM10.0818 11.8398C9.17163 12.3999 8.12145 12.75 7.00125 12.75C5.95106 12.75 4.97089 12.47 4.06072 11.9799L3.85069 11.8398L1.6803 12.3999L2.2404 10.2996L2.10037 10.0895C0.420075 7.28904 1.26022 3.78841 3.99071 2.0381C6.7212 0.287788 10.2218 1.19795 11.9021 3.85842C13.5824 6.58891 12.8123 10.1595 10.0818 11.8398Z" fill="white"/>
</svg>
