<svg width="26" height="26" viewBox="0 0 26 26" fill="none" xmlns="http://www.w3.org/2000/svg">
<path d="M23.6598 10.5921L23.6593 10.605V10.618C23.6593 11.2661 23.6587 14.7271 23.6198 15.2727L23.6176 15.3037L23.6179 15.3347C23.6307 16.4498 23.461 17.5594 23.1155 18.6196L23.1144 18.623C23.0259 18.8992 22.8731 19.1503 22.6686 19.3559C22.3514 19.6648 21.9499 19.8725 21.5149 19.953C17.7953 20.2387 14.6442 20.2899 11.0423 20.2384L11.0289 20.2382L11.0155 20.2385C8.80753 20.2857 6.59899 20.1741 4.40698 19.9047C3.98595 19.8223 3.59792 19.6193 3.29 19.3206C3.02247 19.0147 2.83327 18.6482 2.73885 18.2527L2.73705 18.2452L2.7351 18.2377C2.57167 17.6107 2.47528 16.9681 2.44755 16.3207L2.44716 16.3116L2.44654 16.3025C2.29847 14.1005 2.29834 11.891 2.44614 9.68905C2.44755 9.67222 2.44894 9.65541 2.45034 9.63862C2.50179 9.02022 2.55133 8.42478 2.68571 7.87943C2.82272 7.32341 3.03069 6.89843 3.34743 6.60633L3.34748 6.60638L3.35473 6.5995C3.66085 6.30955 4.04285 6.11263 4.45615 6.03136C7.29304 5.77902 10.1413 5.67721 12.989 5.72636L13.0016 5.72658L13.0143 5.72637C15.8727 5.67935 18.7316 5.7846 21.5788 6.04168C22.0648 6.13643 22.5062 6.38685 22.8367 6.75431C23.4227 7.94583 23.7057 9.26409 23.6598 10.5921ZM9.90823 15.9483V17.2069L11.0151 16.608C12.0491 16.0485 13.1136 15.5078 14.1401 14.9863L14.227 14.9422C15.2756 14.4095 16.2863 13.895 17.1611 13.4102L18.3766 12.7366L17.1463 12.0903L11.007 8.86511L9.90823 8.28787V9.52907V15.9483Z" stroke="white" stroke-width="1.5"/>
</svg>
